
<?xml version="1.0" standalone="no"?>
<!DOCTYPE svg PUBLIC "-//W3C//DTD SVG 20010904//EN"
 "http://www.w3.org/TR/2001/REC-SVG-20010904/DTD/svg10.dtd">
<svg version="1.0" xmlns="http://www.w3.org/2000/svg"
 width="120.000000pt" height="120.000000pt" viewBox="0 0 120.000000 120.000000"
 preserveAspectRatio="xMidYMid meet">

<g transform="translate(0.000000,120.000000) scale(0.100000,-0.100000)"
fill="#000000" stroke="none">
<path d="M320 1027 c-222 -130 -265 -158 -265 -177 0 -19 43 -48 263 -176 145
-85 271 -154 282 -154 10 0 136 69 281 154 193 112 265 158 267 173 3 17 -40
46 -259 173 -144 84 -271 155 -283 157 -14 3 -111 -49 -286 -150z"/>
<path d="M362 247 c-7 -20 -23 -39 -38 -46 -15 -6 -25 -13 -23 -15 3 -2 227
-132 284 -164 6 -3 3 3 -5 14 -14 18 -172 206 -195 232 -8 9 -14 5 -23 -21z"/>
</g>
</svg>
